G04 EAGLE Gerber RS-274X export*
G75*
%MOMM*%
%FSLAX34Y34*%
%LPD*%
%INSolderpaste Top*%
%IPPOS*%
%AMOC8*
5,1,8,0,0,1.08239X$1,22.5*%
G01*
%ADD10R,1.100000X1.000000*%
%ADD11C,0.300000*%
%ADD12R,2.000000X1.200000*%
%ADD13R,1.350000X0.600000*%
%ADD14R,0.800000X0.900000*%
%ADD15R,1.000000X1.100000*%
%ADD16R,1.200000X0.600000*%


D10*
X522350Y222250D03*
X539350Y222250D03*
D11*
X232100Y223330D02*
X225100Y223330D01*
X232100Y223330D02*
X232100Y216330D01*
X225100Y216330D01*
X225100Y223330D01*
X225100Y219180D02*
X232100Y219180D01*
X232100Y222030D02*
X225100Y222030D01*
X225100Y240870D02*
X232100Y240870D01*
X232100Y233870D01*
X225100Y233870D01*
X225100Y240870D01*
X225100Y236720D02*
X232100Y236720D01*
X232100Y239570D02*
X225100Y239570D01*
X456120Y16200D02*
X456120Y9200D01*
X456120Y16200D02*
X463120Y16200D01*
X463120Y9200D01*
X456120Y9200D01*
X456120Y12050D02*
X463120Y12050D01*
X463120Y14900D02*
X456120Y14900D01*
X438580Y16200D02*
X438580Y9200D01*
X438580Y16200D02*
X445580Y16200D01*
X445580Y9200D01*
X438580Y9200D01*
X438580Y12050D02*
X445580Y12050D01*
X445580Y14900D02*
X438580Y14900D01*
X669600Y223330D02*
X676600Y223330D01*
X676600Y216330D01*
X669600Y216330D01*
X669600Y223330D01*
X669600Y219180D02*
X676600Y219180D01*
X676600Y222030D02*
X669600Y222030D01*
X669600Y240870D02*
X676600Y240870D01*
X676600Y233870D01*
X669600Y233870D01*
X669600Y240870D01*
X669600Y236720D02*
X676600Y236720D01*
X676600Y239570D02*
X669600Y239570D01*
D12*
X887650Y99000D03*
X887650Y155000D03*
D13*
X850900Y112000D03*
X850900Y122000D03*
X850900Y132000D03*
X850900Y142000D03*
D12*
X14050Y155000D03*
X14050Y99000D03*
D13*
X50800Y142000D03*
X50800Y132000D03*
X50800Y122000D03*
X50800Y112000D03*
D14*
X231800Y180500D03*
X250800Y180500D03*
X241300Y201500D03*
X676300Y180500D03*
X695300Y180500D03*
X685800Y201500D03*
D15*
X203200Y237100D03*
X203200Y220100D03*
D10*
X459350Y38100D03*
X442350Y38100D03*
X522350Y241300D03*
X539350Y241300D03*
D15*
X254000Y220100D03*
X254000Y237100D03*
X203200Y182000D03*
X203200Y199000D03*
X647700Y237100D03*
X647700Y220100D03*
X698500Y220100D03*
X698500Y237100D03*
X647700Y182000D03*
X647700Y199000D03*
D16*
X502850Y203200D03*
X502850Y190500D03*
X502850Y177800D03*
X502850Y165100D03*
X502850Y152400D03*
X502850Y139700D03*
X502850Y127000D03*
X558850Y127000D03*
X558850Y139700D03*
X558850Y152400D03*
X558850Y165100D03*
X558850Y177800D03*
X558850Y190500D03*
X558850Y203200D03*
D15*
X95250Y122800D03*
X95250Y105800D03*
X158750Y122800D03*
X158750Y105800D03*
D10*
X156600Y558800D03*
X173600Y558800D03*
X601100Y558800D03*
X618100Y558800D03*
X1429130Y222250D03*
X1446130Y222250D03*
D11*
X1138880Y223330D02*
X1131880Y223330D01*
X1138880Y223330D02*
X1138880Y216330D01*
X1131880Y216330D01*
X1131880Y223330D01*
X1131880Y219180D02*
X1138880Y219180D01*
X1138880Y222030D02*
X1131880Y222030D01*
X1131880Y240870D02*
X1138880Y240870D01*
X1138880Y233870D01*
X1131880Y233870D01*
X1131880Y240870D01*
X1131880Y236720D02*
X1138880Y236720D01*
X1138880Y239570D02*
X1131880Y239570D01*
X1362900Y16200D02*
X1362900Y9200D01*
X1362900Y16200D02*
X1369900Y16200D01*
X1369900Y9200D01*
X1362900Y9200D01*
X1362900Y12050D02*
X1369900Y12050D01*
X1369900Y14900D02*
X1362900Y14900D01*
X1345360Y16200D02*
X1345360Y9200D01*
X1345360Y16200D02*
X1352360Y16200D01*
X1352360Y9200D01*
X1345360Y9200D01*
X1345360Y12050D02*
X1352360Y12050D01*
X1352360Y14900D02*
X1345360Y14900D01*
X1576380Y223330D02*
X1583380Y223330D01*
X1583380Y216330D01*
X1576380Y216330D01*
X1576380Y223330D01*
X1576380Y219180D02*
X1583380Y219180D01*
X1583380Y222030D02*
X1576380Y222030D01*
X1576380Y240870D02*
X1583380Y240870D01*
X1583380Y233870D01*
X1576380Y233870D01*
X1576380Y240870D01*
X1576380Y236720D02*
X1583380Y236720D01*
X1583380Y239570D02*
X1576380Y239570D01*
D12*
X1794430Y99000D03*
X1794430Y155000D03*
D13*
X1757680Y112000D03*
X1757680Y122000D03*
X1757680Y132000D03*
X1757680Y142000D03*
D12*
X920830Y155000D03*
X920830Y99000D03*
D13*
X957580Y142000D03*
X957580Y132000D03*
X957580Y122000D03*
X957580Y112000D03*
D14*
X1138580Y180500D03*
X1157580Y180500D03*
X1148080Y201500D03*
X1583080Y180500D03*
X1602080Y180500D03*
X1592580Y201500D03*
D15*
X1109980Y237100D03*
X1109980Y220100D03*
D10*
X1366130Y38100D03*
X1349130Y38100D03*
X1429130Y241300D03*
X1446130Y241300D03*
D15*
X1160780Y220100D03*
X1160780Y237100D03*
X1109980Y182000D03*
X1109980Y199000D03*
X1554480Y237100D03*
X1554480Y220100D03*
X1605280Y220100D03*
X1605280Y237100D03*
X1554480Y182000D03*
X1554480Y199000D03*
D16*
X1409630Y203200D03*
X1409630Y190500D03*
X1409630Y177800D03*
X1409630Y165100D03*
X1409630Y152400D03*
X1409630Y139700D03*
X1409630Y127000D03*
X1465630Y127000D03*
X1465630Y139700D03*
X1465630Y152400D03*
X1465630Y165100D03*
X1465630Y177800D03*
X1465630Y190500D03*
X1465630Y203200D03*
D15*
X1002030Y122800D03*
X1002030Y105800D03*
X1065530Y122800D03*
X1065530Y105800D03*
D10*
X1063380Y558800D03*
X1080380Y558800D03*
X1507880Y558800D03*
X1524880Y558800D03*
X522350Y900430D03*
X539350Y900430D03*
D11*
X232100Y901510D02*
X225100Y901510D01*
X232100Y901510D02*
X232100Y894510D01*
X225100Y894510D01*
X225100Y901510D01*
X225100Y897360D02*
X232100Y897360D01*
X232100Y900210D02*
X225100Y900210D01*
X225100Y919050D02*
X232100Y919050D01*
X232100Y912050D01*
X225100Y912050D01*
X225100Y919050D01*
X225100Y914900D02*
X232100Y914900D01*
X232100Y917750D02*
X225100Y917750D01*
X456120Y694380D02*
X456120Y687380D01*
X456120Y694380D02*
X463120Y694380D01*
X463120Y687380D01*
X456120Y687380D01*
X456120Y690230D02*
X463120Y690230D01*
X463120Y693080D02*
X456120Y693080D01*
X438580Y694380D02*
X438580Y687380D01*
X438580Y694380D02*
X445580Y694380D01*
X445580Y687380D01*
X438580Y687380D01*
X438580Y690230D02*
X445580Y690230D01*
X445580Y693080D02*
X438580Y693080D01*
X669600Y901510D02*
X676600Y901510D01*
X676600Y894510D01*
X669600Y894510D01*
X669600Y901510D01*
X669600Y897360D02*
X676600Y897360D01*
X676600Y900210D02*
X669600Y900210D01*
X669600Y919050D02*
X676600Y919050D01*
X676600Y912050D01*
X669600Y912050D01*
X669600Y919050D01*
X669600Y914900D02*
X676600Y914900D01*
X676600Y917750D02*
X669600Y917750D01*
D12*
X887650Y777180D03*
X887650Y833180D03*
D13*
X850900Y790180D03*
X850900Y800180D03*
X850900Y810180D03*
X850900Y820180D03*
D12*
X14050Y833180D03*
X14050Y777180D03*
D13*
X50800Y820180D03*
X50800Y810180D03*
X50800Y800180D03*
X50800Y790180D03*
D14*
X231800Y858680D03*
X250800Y858680D03*
X241300Y879680D03*
X676300Y858680D03*
X695300Y858680D03*
X685800Y879680D03*
D15*
X203200Y915280D03*
X203200Y898280D03*
D10*
X459350Y716280D03*
X442350Y716280D03*
X522350Y919480D03*
X539350Y919480D03*
D15*
X254000Y898280D03*
X254000Y915280D03*
X203200Y860180D03*
X203200Y877180D03*
X647700Y915280D03*
X647700Y898280D03*
X698500Y898280D03*
X698500Y915280D03*
X647700Y860180D03*
X647700Y877180D03*
D16*
X502850Y881380D03*
X502850Y868680D03*
X502850Y855980D03*
X502850Y843280D03*
X502850Y830580D03*
X502850Y817880D03*
X502850Y805180D03*
X558850Y805180D03*
X558850Y817880D03*
X558850Y830580D03*
X558850Y843280D03*
X558850Y855980D03*
X558850Y868680D03*
X558850Y881380D03*
D15*
X95250Y800980D03*
X95250Y783980D03*
X158750Y800980D03*
X158750Y783980D03*
D10*
X156600Y1236980D03*
X173600Y1236980D03*
X601100Y1236980D03*
X618100Y1236980D03*
X1429130Y900430D03*
X1446130Y900430D03*
D11*
X1138880Y901510D02*
X1131880Y901510D01*
X1138880Y901510D02*
X1138880Y894510D01*
X1131880Y894510D01*
X1131880Y901510D01*
X1131880Y897360D02*
X1138880Y897360D01*
X1138880Y900210D02*
X1131880Y900210D01*
X1131880Y919050D02*
X1138880Y919050D01*
X1138880Y912050D01*
X1131880Y912050D01*
X1131880Y919050D01*
X1131880Y914900D02*
X1138880Y914900D01*
X1138880Y917750D02*
X1131880Y917750D01*
X1362900Y694380D02*
X1362900Y687380D01*
X1362900Y694380D02*
X1369900Y694380D01*
X1369900Y687380D01*
X1362900Y687380D01*
X1362900Y690230D02*
X1369900Y690230D01*
X1369900Y693080D02*
X1362900Y693080D01*
X1345360Y694380D02*
X1345360Y687380D01*
X1345360Y694380D02*
X1352360Y694380D01*
X1352360Y687380D01*
X1345360Y687380D01*
X1345360Y690230D02*
X1352360Y690230D01*
X1352360Y693080D02*
X1345360Y693080D01*
X1576380Y901510D02*
X1583380Y901510D01*
X1583380Y894510D01*
X1576380Y894510D01*
X1576380Y901510D01*
X1576380Y897360D02*
X1583380Y897360D01*
X1583380Y900210D02*
X1576380Y900210D01*
X1576380Y919050D02*
X1583380Y919050D01*
X1583380Y912050D01*
X1576380Y912050D01*
X1576380Y919050D01*
X1576380Y914900D02*
X1583380Y914900D01*
X1583380Y917750D02*
X1576380Y917750D01*
D12*
X1794430Y777180D03*
X1794430Y833180D03*
D13*
X1757680Y790180D03*
X1757680Y800180D03*
X1757680Y810180D03*
X1757680Y820180D03*
D12*
X920830Y833180D03*
X920830Y777180D03*
D13*
X957580Y820180D03*
X957580Y810180D03*
X957580Y800180D03*
X957580Y790180D03*
D14*
X1138580Y858680D03*
X1157580Y858680D03*
X1148080Y879680D03*
X1583080Y858680D03*
X1602080Y858680D03*
X1592580Y879680D03*
D15*
X1109980Y915280D03*
X1109980Y898280D03*
D10*
X1366130Y716280D03*
X1349130Y716280D03*
X1429130Y919480D03*
X1446130Y919480D03*
D15*
X1160780Y898280D03*
X1160780Y915280D03*
X1109980Y860180D03*
X1109980Y877180D03*
X1554480Y915280D03*
X1554480Y898280D03*
X1605280Y898280D03*
X1605280Y915280D03*
X1554480Y860180D03*
X1554480Y877180D03*
D16*
X1409630Y881380D03*
X1409630Y868680D03*
X1409630Y855980D03*
X1409630Y843280D03*
X1409630Y830580D03*
X1409630Y817880D03*
X1409630Y805180D03*
X1465630Y805180D03*
X1465630Y817880D03*
X1465630Y830580D03*
X1465630Y843280D03*
X1465630Y855980D03*
X1465630Y868680D03*
X1465630Y881380D03*
D15*
X1002030Y800980D03*
X1002030Y783980D03*
X1065530Y800980D03*
X1065530Y783980D03*
D10*
X1063380Y1236980D03*
X1080380Y1236980D03*
X1507880Y1236980D03*
X1524880Y1236980D03*
M02*
