G04 EAGLE Gerber RS-274X export*
G75*
%MOMM*%
%FSLAX34Y34*%
%LPD*%
%INSoldermask Top*%
%IPPOS*%
%AMOC8*
5,1,8,0,0,1.08239X$1,22.5*%
G01*
%ADD10R,1.303200X1.203200*%
%ADD11C,0.505344*%
%ADD12C,1.203200*%
%ADD13C,2.082800*%
%ADD14R,2.203200X1.403200*%
%ADD15R,1.553200X0.803200*%
%ADD16R,1.473200X0.863600*%
%ADD17R,0.863600X1.473200*%
%ADD18C,3.505200*%
%ADD19R,1.003200X1.103200*%
%ADD20R,1.203200X1.303200*%
%ADD21R,1.403200X0.803200*%
%ADD22C,3.022600*%
%ADD23C,3.003200*%
%ADD24C,1.270000*%
%ADD25C,1.703200*%

G36*
X452185Y739152D02*
X452185Y739152D01*
X452251Y739154D01*
X452294Y739172D01*
X452341Y739180D01*
X452398Y739214D01*
X452458Y739239D01*
X452493Y739270D01*
X452534Y739295D01*
X452576Y739346D01*
X452624Y739390D01*
X452646Y739432D01*
X452675Y739469D01*
X452696Y739531D01*
X452727Y739590D01*
X452735Y739644D01*
X452747Y739681D01*
X452746Y739721D01*
X452754Y739775D01*
X452754Y743585D01*
X452743Y743650D01*
X452741Y743716D01*
X452723Y743759D01*
X452715Y743806D01*
X452681Y743863D01*
X452656Y743923D01*
X452625Y743958D01*
X452600Y743999D01*
X452549Y744041D01*
X452505Y744089D01*
X452463Y744111D01*
X452426Y744140D01*
X452364Y744161D01*
X452305Y744192D01*
X452251Y744200D01*
X452214Y744212D01*
X452174Y744211D01*
X452120Y744219D01*
X449580Y744219D01*
X449515Y744208D01*
X449449Y744206D01*
X449406Y744188D01*
X449359Y744180D01*
X449302Y744146D01*
X449242Y744121D01*
X449207Y744090D01*
X449166Y744065D01*
X449125Y744014D01*
X449076Y743970D01*
X449054Y743928D01*
X449025Y743891D01*
X449004Y743829D01*
X448973Y743770D01*
X448965Y743716D01*
X448953Y743679D01*
X448953Y743675D01*
X448953Y743674D01*
X448954Y743639D01*
X448946Y743585D01*
X448946Y739775D01*
X448957Y739710D01*
X448959Y739644D01*
X448977Y739601D01*
X448985Y739554D01*
X449019Y739497D01*
X449044Y739437D01*
X449075Y739402D01*
X449100Y739361D01*
X449151Y739320D01*
X449195Y739271D01*
X449237Y739249D01*
X449274Y739220D01*
X449336Y739199D01*
X449395Y739168D01*
X449449Y739160D01*
X449486Y739148D01*
X449526Y739149D01*
X449580Y739141D01*
X452120Y739141D01*
X452185Y739152D01*
G37*
G36*
X1358965Y739152D02*
X1358965Y739152D01*
X1359031Y739154D01*
X1359074Y739172D01*
X1359121Y739180D01*
X1359178Y739214D01*
X1359238Y739239D01*
X1359273Y739270D01*
X1359314Y739295D01*
X1359356Y739346D01*
X1359404Y739390D01*
X1359426Y739432D01*
X1359455Y739469D01*
X1359476Y739531D01*
X1359507Y739590D01*
X1359515Y739644D01*
X1359527Y739681D01*
X1359526Y739721D01*
X1359534Y739775D01*
X1359534Y743585D01*
X1359523Y743650D01*
X1359521Y743716D01*
X1359503Y743759D01*
X1359495Y743806D01*
X1359461Y743863D01*
X1359436Y743923D01*
X1359405Y743958D01*
X1359380Y743999D01*
X1359329Y744041D01*
X1359285Y744089D01*
X1359243Y744111D01*
X1359206Y744140D01*
X1359144Y744161D01*
X1359085Y744192D01*
X1359031Y744200D01*
X1358994Y744212D01*
X1358954Y744211D01*
X1358900Y744219D01*
X1356360Y744219D01*
X1356295Y744208D01*
X1356229Y744206D01*
X1356186Y744188D01*
X1356139Y744180D01*
X1356082Y744146D01*
X1356022Y744121D01*
X1355987Y744090D01*
X1355946Y744065D01*
X1355905Y744014D01*
X1355856Y743970D01*
X1355834Y743928D01*
X1355805Y743891D01*
X1355784Y743829D01*
X1355753Y743770D01*
X1355745Y743716D01*
X1355733Y743679D01*
X1355733Y743675D01*
X1355733Y743674D01*
X1355734Y743639D01*
X1355726Y743585D01*
X1355726Y739775D01*
X1355737Y739710D01*
X1355739Y739644D01*
X1355757Y739601D01*
X1355765Y739554D01*
X1355799Y739497D01*
X1355824Y739437D01*
X1355855Y739402D01*
X1355880Y739361D01*
X1355931Y739320D01*
X1355975Y739271D01*
X1356017Y739249D01*
X1356054Y739220D01*
X1356116Y739199D01*
X1356175Y739168D01*
X1356229Y739160D01*
X1356266Y739148D01*
X1356306Y739149D01*
X1356360Y739141D01*
X1358900Y739141D01*
X1358965Y739152D01*
G37*
G36*
X1358965Y60972D02*
X1358965Y60972D01*
X1359031Y60974D01*
X1359074Y60992D01*
X1359121Y61000D01*
X1359178Y61034D01*
X1359238Y61059D01*
X1359273Y61090D01*
X1359314Y61115D01*
X1359356Y61166D01*
X1359404Y61210D01*
X1359426Y61252D01*
X1359455Y61289D01*
X1359476Y61351D01*
X1359507Y61410D01*
X1359515Y61464D01*
X1359527Y61501D01*
X1359526Y61541D01*
X1359534Y61595D01*
X1359534Y65405D01*
X1359523Y65470D01*
X1359521Y65536D01*
X1359503Y65579D01*
X1359495Y65626D01*
X1359461Y65683D01*
X1359436Y65743D01*
X1359405Y65778D01*
X1359380Y65819D01*
X1359329Y65861D01*
X1359285Y65909D01*
X1359243Y65931D01*
X1359206Y65960D01*
X1359144Y65981D01*
X1359085Y66012D01*
X1359031Y66020D01*
X1358994Y66032D01*
X1358954Y66031D01*
X1358900Y66039D01*
X1356360Y66039D01*
X1356295Y66028D01*
X1356229Y66026D01*
X1356186Y66008D01*
X1356139Y66000D01*
X1356082Y65966D01*
X1356022Y65941D01*
X1355987Y65910D01*
X1355946Y65885D01*
X1355905Y65834D01*
X1355856Y65790D01*
X1355834Y65748D01*
X1355805Y65711D01*
X1355784Y65649D01*
X1355753Y65590D01*
X1355745Y65536D01*
X1355733Y65499D01*
X1355733Y65495D01*
X1355733Y65494D01*
X1355734Y65459D01*
X1355726Y65405D01*
X1355726Y61595D01*
X1355737Y61530D01*
X1355739Y61464D01*
X1355757Y61421D01*
X1355765Y61374D01*
X1355799Y61317D01*
X1355824Y61257D01*
X1355855Y61222D01*
X1355880Y61181D01*
X1355931Y61140D01*
X1355975Y61091D01*
X1356017Y61069D01*
X1356054Y61040D01*
X1356116Y61019D01*
X1356175Y60988D01*
X1356229Y60980D01*
X1356266Y60968D01*
X1356306Y60969D01*
X1356360Y60961D01*
X1358900Y60961D01*
X1358965Y60972D01*
G37*
G36*
X452185Y60972D02*
X452185Y60972D01*
X452251Y60974D01*
X452294Y60992D01*
X452341Y61000D01*
X452398Y61034D01*
X452458Y61059D01*
X452493Y61090D01*
X452534Y61115D01*
X452576Y61166D01*
X452624Y61210D01*
X452646Y61252D01*
X452675Y61289D01*
X452696Y61351D01*
X452727Y61410D01*
X452735Y61464D01*
X452747Y61501D01*
X452746Y61541D01*
X452754Y61595D01*
X452754Y65405D01*
X452743Y65470D01*
X452741Y65536D01*
X452723Y65579D01*
X452715Y65626D01*
X452681Y65683D01*
X452656Y65743D01*
X452625Y65778D01*
X452600Y65819D01*
X452549Y65861D01*
X452505Y65909D01*
X452463Y65931D01*
X452426Y65960D01*
X452364Y65981D01*
X452305Y66012D01*
X452251Y66020D01*
X452214Y66032D01*
X452174Y66031D01*
X452120Y66039D01*
X449580Y66039D01*
X449515Y66028D01*
X449449Y66026D01*
X449406Y66008D01*
X449359Y66000D01*
X449302Y65966D01*
X449242Y65941D01*
X449207Y65910D01*
X449166Y65885D01*
X449125Y65834D01*
X449076Y65790D01*
X449054Y65748D01*
X449025Y65711D01*
X449004Y65649D01*
X448973Y65590D01*
X448965Y65536D01*
X448953Y65499D01*
X448953Y65495D01*
X448953Y65494D01*
X448954Y65459D01*
X448946Y65405D01*
X448946Y61595D01*
X448957Y61530D01*
X448959Y61464D01*
X448977Y61421D01*
X448985Y61374D01*
X449019Y61317D01*
X449044Y61257D01*
X449075Y61222D01*
X449100Y61181D01*
X449151Y61140D01*
X449195Y61091D01*
X449237Y61069D01*
X449274Y61040D01*
X449336Y61019D01*
X449395Y60988D01*
X449449Y60980D01*
X449486Y60968D01*
X449526Y60969D01*
X449580Y60961D01*
X452120Y60961D01*
X452185Y60972D01*
G37*
G36*
X1030670Y112407D02*
X1030670Y112407D01*
X1030736Y112409D01*
X1030779Y112427D01*
X1030826Y112435D01*
X1030883Y112469D01*
X1030943Y112494D01*
X1030978Y112525D01*
X1031019Y112550D01*
X1031061Y112601D01*
X1031109Y112645D01*
X1031131Y112687D01*
X1031160Y112724D01*
X1031181Y112786D01*
X1031212Y112845D01*
X1031220Y112899D01*
X1031232Y112936D01*
X1031231Y112976D01*
X1031239Y113030D01*
X1031239Y115570D01*
X1031228Y115635D01*
X1031226Y115701D01*
X1031208Y115744D01*
X1031200Y115791D01*
X1031166Y115848D01*
X1031141Y115908D01*
X1031110Y115943D01*
X1031085Y115984D01*
X1031034Y116026D01*
X1030990Y116074D01*
X1030948Y116096D01*
X1030911Y116125D01*
X1030849Y116146D01*
X1030790Y116177D01*
X1030736Y116185D01*
X1030699Y116197D01*
X1030659Y116196D01*
X1030605Y116204D01*
X1026795Y116204D01*
X1026730Y116193D01*
X1026664Y116191D01*
X1026621Y116173D01*
X1026574Y116165D01*
X1026517Y116131D01*
X1026457Y116106D01*
X1026422Y116075D01*
X1026381Y116050D01*
X1026340Y115999D01*
X1026291Y115955D01*
X1026269Y115913D01*
X1026240Y115876D01*
X1026219Y115814D01*
X1026188Y115755D01*
X1026180Y115701D01*
X1026168Y115664D01*
X1026168Y115661D01*
X1026169Y115624D01*
X1026161Y115570D01*
X1026161Y113030D01*
X1026172Y112965D01*
X1026174Y112899D01*
X1026192Y112856D01*
X1026200Y112809D01*
X1026234Y112752D01*
X1026259Y112692D01*
X1026290Y112657D01*
X1026315Y112616D01*
X1026366Y112575D01*
X1026410Y112526D01*
X1026452Y112504D01*
X1026489Y112475D01*
X1026551Y112454D01*
X1026610Y112423D01*
X1026664Y112415D01*
X1026701Y112403D01*
X1026741Y112404D01*
X1026795Y112396D01*
X1030605Y112396D01*
X1030670Y112407D01*
G37*
G36*
X1040830Y112407D02*
X1040830Y112407D01*
X1040896Y112409D01*
X1040939Y112427D01*
X1040986Y112435D01*
X1041043Y112469D01*
X1041103Y112494D01*
X1041138Y112525D01*
X1041179Y112550D01*
X1041221Y112601D01*
X1041269Y112645D01*
X1041291Y112687D01*
X1041320Y112724D01*
X1041341Y112786D01*
X1041372Y112845D01*
X1041380Y112899D01*
X1041392Y112936D01*
X1041391Y112976D01*
X1041399Y113030D01*
X1041399Y115570D01*
X1041388Y115635D01*
X1041386Y115701D01*
X1041368Y115744D01*
X1041360Y115791D01*
X1041326Y115848D01*
X1041301Y115908D01*
X1041270Y115943D01*
X1041245Y115984D01*
X1041194Y116026D01*
X1041150Y116074D01*
X1041108Y116096D01*
X1041071Y116125D01*
X1041009Y116146D01*
X1040950Y116177D01*
X1040896Y116185D01*
X1040859Y116197D01*
X1040819Y116196D01*
X1040765Y116204D01*
X1036955Y116204D01*
X1036890Y116193D01*
X1036824Y116191D01*
X1036781Y116173D01*
X1036734Y116165D01*
X1036677Y116131D01*
X1036617Y116106D01*
X1036582Y116075D01*
X1036541Y116050D01*
X1036500Y115999D01*
X1036451Y115955D01*
X1036429Y115913D01*
X1036400Y115876D01*
X1036379Y115814D01*
X1036348Y115755D01*
X1036340Y115701D01*
X1036328Y115664D01*
X1036328Y115661D01*
X1036329Y115624D01*
X1036321Y115570D01*
X1036321Y113030D01*
X1036332Y112965D01*
X1036334Y112899D01*
X1036352Y112856D01*
X1036360Y112809D01*
X1036394Y112752D01*
X1036419Y112692D01*
X1036450Y112657D01*
X1036475Y112616D01*
X1036526Y112575D01*
X1036570Y112526D01*
X1036612Y112504D01*
X1036649Y112475D01*
X1036711Y112454D01*
X1036770Y112423D01*
X1036824Y112415D01*
X1036861Y112403D01*
X1036901Y112404D01*
X1036955Y112396D01*
X1040765Y112396D01*
X1040830Y112407D01*
G37*
G36*
X134050Y112407D02*
X134050Y112407D01*
X134116Y112409D01*
X134159Y112427D01*
X134206Y112435D01*
X134263Y112469D01*
X134323Y112494D01*
X134358Y112525D01*
X134399Y112550D01*
X134441Y112601D01*
X134489Y112645D01*
X134511Y112687D01*
X134540Y112724D01*
X134561Y112786D01*
X134592Y112845D01*
X134600Y112899D01*
X134612Y112936D01*
X134611Y112976D01*
X134619Y113030D01*
X134619Y115570D01*
X134608Y115635D01*
X134606Y115701D01*
X134588Y115744D01*
X134580Y115791D01*
X134546Y115848D01*
X134521Y115908D01*
X134490Y115943D01*
X134465Y115984D01*
X134414Y116026D01*
X134370Y116074D01*
X134328Y116096D01*
X134291Y116125D01*
X134229Y116146D01*
X134170Y116177D01*
X134116Y116185D01*
X134079Y116197D01*
X134039Y116196D01*
X133985Y116204D01*
X130175Y116204D01*
X130110Y116193D01*
X130044Y116191D01*
X130001Y116173D01*
X129954Y116165D01*
X129897Y116131D01*
X129837Y116106D01*
X129802Y116075D01*
X129761Y116050D01*
X129720Y115999D01*
X129671Y115955D01*
X129649Y115913D01*
X129620Y115876D01*
X129599Y115814D01*
X129568Y115755D01*
X129560Y115701D01*
X129548Y115664D01*
X129548Y115661D01*
X129549Y115624D01*
X129541Y115570D01*
X129541Y113030D01*
X129552Y112965D01*
X129554Y112899D01*
X129572Y112856D01*
X129580Y112809D01*
X129614Y112752D01*
X129639Y112692D01*
X129670Y112657D01*
X129695Y112616D01*
X129746Y112575D01*
X129790Y112526D01*
X129832Y112504D01*
X129869Y112475D01*
X129931Y112454D01*
X129990Y112423D01*
X130044Y112415D01*
X130081Y112403D01*
X130121Y112404D01*
X130175Y112396D01*
X133985Y112396D01*
X134050Y112407D01*
G37*
G36*
X123890Y112407D02*
X123890Y112407D01*
X123956Y112409D01*
X123999Y112427D01*
X124046Y112435D01*
X124103Y112469D01*
X124163Y112494D01*
X124198Y112525D01*
X124239Y112550D01*
X124281Y112601D01*
X124329Y112645D01*
X124351Y112687D01*
X124380Y112724D01*
X124401Y112786D01*
X124432Y112845D01*
X124440Y112899D01*
X124452Y112936D01*
X124451Y112976D01*
X124459Y113030D01*
X124459Y115570D01*
X124448Y115635D01*
X124446Y115701D01*
X124428Y115744D01*
X124420Y115791D01*
X124386Y115848D01*
X124361Y115908D01*
X124330Y115943D01*
X124305Y115984D01*
X124254Y116026D01*
X124210Y116074D01*
X124168Y116096D01*
X124131Y116125D01*
X124069Y116146D01*
X124010Y116177D01*
X123956Y116185D01*
X123919Y116197D01*
X123879Y116196D01*
X123825Y116204D01*
X120015Y116204D01*
X119950Y116193D01*
X119884Y116191D01*
X119841Y116173D01*
X119794Y116165D01*
X119737Y116131D01*
X119677Y116106D01*
X119642Y116075D01*
X119601Y116050D01*
X119560Y115999D01*
X119511Y115955D01*
X119489Y115913D01*
X119460Y115876D01*
X119439Y115814D01*
X119408Y115755D01*
X119400Y115701D01*
X119388Y115664D01*
X119388Y115661D01*
X119389Y115624D01*
X119381Y115570D01*
X119381Y113030D01*
X119392Y112965D01*
X119394Y112899D01*
X119412Y112856D01*
X119420Y112809D01*
X119454Y112752D01*
X119479Y112692D01*
X119510Y112657D01*
X119535Y112616D01*
X119586Y112575D01*
X119630Y112526D01*
X119672Y112504D01*
X119709Y112475D01*
X119771Y112454D01*
X119830Y112423D01*
X119884Y112415D01*
X119921Y112403D01*
X119961Y112404D01*
X120015Y112396D01*
X123825Y112396D01*
X123890Y112407D01*
G37*
G36*
X1388800Y815987D02*
X1388800Y815987D01*
X1388866Y815989D01*
X1388909Y816007D01*
X1388956Y816015D01*
X1389013Y816049D01*
X1389073Y816074D01*
X1389108Y816105D01*
X1389149Y816130D01*
X1389191Y816181D01*
X1389239Y816225D01*
X1389261Y816267D01*
X1389290Y816304D01*
X1389311Y816366D01*
X1389342Y816425D01*
X1389350Y816479D01*
X1389362Y816516D01*
X1389361Y816556D01*
X1389369Y816610D01*
X1389369Y819150D01*
X1389358Y819215D01*
X1389356Y819281D01*
X1389338Y819324D01*
X1389330Y819371D01*
X1389296Y819428D01*
X1389271Y819488D01*
X1389240Y819523D01*
X1389215Y819564D01*
X1389164Y819606D01*
X1389120Y819654D01*
X1389078Y819676D01*
X1389041Y819705D01*
X1388979Y819726D01*
X1388920Y819757D01*
X1388866Y819765D01*
X1388829Y819777D01*
X1388789Y819776D01*
X1388735Y819784D01*
X1384925Y819784D01*
X1384860Y819773D01*
X1384794Y819771D01*
X1384751Y819753D01*
X1384704Y819745D01*
X1384647Y819711D01*
X1384587Y819686D01*
X1384552Y819655D01*
X1384511Y819630D01*
X1384470Y819579D01*
X1384421Y819535D01*
X1384399Y819493D01*
X1384370Y819456D01*
X1384349Y819394D01*
X1384318Y819335D01*
X1384310Y819281D01*
X1384298Y819244D01*
X1384298Y819241D01*
X1384299Y819204D01*
X1384291Y819150D01*
X1384291Y816610D01*
X1384302Y816545D01*
X1384304Y816479D01*
X1384322Y816436D01*
X1384330Y816389D01*
X1384364Y816332D01*
X1384389Y816272D01*
X1384420Y816237D01*
X1384445Y816196D01*
X1384496Y816155D01*
X1384540Y816106D01*
X1384582Y816084D01*
X1384619Y816055D01*
X1384681Y816034D01*
X1384740Y816003D01*
X1384794Y815995D01*
X1384831Y815983D01*
X1384871Y815984D01*
X1384925Y815976D01*
X1388735Y815976D01*
X1388800Y815987D01*
G37*
G36*
X482020Y815987D02*
X482020Y815987D01*
X482086Y815989D01*
X482129Y816007D01*
X482176Y816015D01*
X482233Y816049D01*
X482293Y816074D01*
X482328Y816105D01*
X482369Y816130D01*
X482411Y816181D01*
X482459Y816225D01*
X482481Y816267D01*
X482510Y816304D01*
X482531Y816366D01*
X482562Y816425D01*
X482570Y816479D01*
X482582Y816516D01*
X482581Y816556D01*
X482589Y816610D01*
X482589Y819150D01*
X482578Y819215D01*
X482576Y819281D01*
X482558Y819324D01*
X482550Y819371D01*
X482516Y819428D01*
X482491Y819488D01*
X482460Y819523D01*
X482435Y819564D01*
X482384Y819606D01*
X482340Y819654D01*
X482298Y819676D01*
X482261Y819705D01*
X482199Y819726D01*
X482140Y819757D01*
X482086Y819765D01*
X482049Y819777D01*
X482009Y819776D01*
X481955Y819784D01*
X478145Y819784D01*
X478080Y819773D01*
X478014Y819771D01*
X477971Y819753D01*
X477924Y819745D01*
X477867Y819711D01*
X477807Y819686D01*
X477772Y819655D01*
X477731Y819630D01*
X477690Y819579D01*
X477641Y819535D01*
X477619Y819493D01*
X477590Y819456D01*
X477569Y819394D01*
X477538Y819335D01*
X477530Y819281D01*
X477518Y819244D01*
X477518Y819241D01*
X477519Y819204D01*
X477511Y819150D01*
X477511Y816610D01*
X477522Y816545D01*
X477524Y816479D01*
X477542Y816436D01*
X477550Y816389D01*
X477584Y816332D01*
X477609Y816272D01*
X477640Y816237D01*
X477665Y816196D01*
X477716Y816155D01*
X477760Y816106D01*
X477802Y816084D01*
X477839Y816055D01*
X477901Y816034D01*
X477960Y816003D01*
X478014Y815995D01*
X478051Y815983D01*
X478091Y815984D01*
X478145Y815976D01*
X481955Y815976D01*
X482020Y815987D01*
G37*
G36*
X1040830Y790587D02*
X1040830Y790587D01*
X1040896Y790589D01*
X1040939Y790607D01*
X1040986Y790615D01*
X1041043Y790649D01*
X1041103Y790674D01*
X1041138Y790705D01*
X1041179Y790730D01*
X1041221Y790781D01*
X1041269Y790825D01*
X1041291Y790867D01*
X1041320Y790904D01*
X1041341Y790966D01*
X1041372Y791025D01*
X1041380Y791079D01*
X1041392Y791116D01*
X1041391Y791156D01*
X1041399Y791210D01*
X1041399Y793750D01*
X1041388Y793815D01*
X1041386Y793881D01*
X1041368Y793924D01*
X1041360Y793971D01*
X1041326Y794028D01*
X1041301Y794088D01*
X1041270Y794123D01*
X1041245Y794164D01*
X1041194Y794206D01*
X1041150Y794254D01*
X1041108Y794276D01*
X1041071Y794305D01*
X1041009Y794326D01*
X1040950Y794357D01*
X1040896Y794365D01*
X1040859Y794377D01*
X1040819Y794376D01*
X1040765Y794384D01*
X1036955Y794384D01*
X1036890Y794373D01*
X1036824Y794371D01*
X1036781Y794353D01*
X1036734Y794345D01*
X1036677Y794311D01*
X1036617Y794286D01*
X1036582Y794255D01*
X1036541Y794230D01*
X1036500Y794179D01*
X1036451Y794135D01*
X1036429Y794093D01*
X1036400Y794056D01*
X1036379Y793994D01*
X1036348Y793935D01*
X1036340Y793881D01*
X1036328Y793844D01*
X1036328Y793841D01*
X1036329Y793804D01*
X1036321Y793750D01*
X1036321Y791210D01*
X1036332Y791145D01*
X1036334Y791079D01*
X1036352Y791036D01*
X1036360Y790989D01*
X1036394Y790932D01*
X1036419Y790872D01*
X1036450Y790837D01*
X1036475Y790796D01*
X1036526Y790755D01*
X1036570Y790706D01*
X1036612Y790684D01*
X1036649Y790655D01*
X1036711Y790634D01*
X1036770Y790603D01*
X1036824Y790595D01*
X1036861Y790583D01*
X1036901Y790584D01*
X1036955Y790576D01*
X1040765Y790576D01*
X1040830Y790587D01*
G37*
G36*
X1030670Y790587D02*
X1030670Y790587D01*
X1030736Y790589D01*
X1030779Y790607D01*
X1030826Y790615D01*
X1030883Y790649D01*
X1030943Y790674D01*
X1030978Y790705D01*
X1031019Y790730D01*
X1031061Y790781D01*
X1031109Y790825D01*
X1031131Y790867D01*
X1031160Y790904D01*
X1031181Y790966D01*
X1031212Y791025D01*
X1031220Y791079D01*
X1031232Y791116D01*
X1031231Y791156D01*
X1031239Y791210D01*
X1031239Y793750D01*
X1031228Y793815D01*
X1031226Y793881D01*
X1031208Y793924D01*
X1031200Y793971D01*
X1031166Y794028D01*
X1031141Y794088D01*
X1031110Y794123D01*
X1031085Y794164D01*
X1031034Y794206D01*
X1030990Y794254D01*
X1030948Y794276D01*
X1030911Y794305D01*
X1030849Y794326D01*
X1030790Y794357D01*
X1030736Y794365D01*
X1030699Y794377D01*
X1030659Y794376D01*
X1030605Y794384D01*
X1026795Y794384D01*
X1026730Y794373D01*
X1026664Y794371D01*
X1026621Y794353D01*
X1026574Y794345D01*
X1026517Y794311D01*
X1026457Y794286D01*
X1026422Y794255D01*
X1026381Y794230D01*
X1026340Y794179D01*
X1026291Y794135D01*
X1026269Y794093D01*
X1026240Y794056D01*
X1026219Y793994D01*
X1026188Y793935D01*
X1026180Y793881D01*
X1026168Y793844D01*
X1026168Y793841D01*
X1026169Y793804D01*
X1026161Y793750D01*
X1026161Y791210D01*
X1026172Y791145D01*
X1026174Y791079D01*
X1026192Y791036D01*
X1026200Y790989D01*
X1026234Y790932D01*
X1026259Y790872D01*
X1026290Y790837D01*
X1026315Y790796D01*
X1026366Y790755D01*
X1026410Y790706D01*
X1026452Y790684D01*
X1026489Y790655D01*
X1026551Y790634D01*
X1026610Y790603D01*
X1026664Y790595D01*
X1026701Y790583D01*
X1026741Y790584D01*
X1026795Y790576D01*
X1030605Y790576D01*
X1030670Y790587D01*
G37*
G36*
X123890Y790587D02*
X123890Y790587D01*
X123956Y790589D01*
X123999Y790607D01*
X124046Y790615D01*
X124103Y790649D01*
X124163Y790674D01*
X124198Y790705D01*
X124239Y790730D01*
X124281Y790781D01*
X124329Y790825D01*
X124351Y790867D01*
X124380Y790904D01*
X124401Y790966D01*
X124432Y791025D01*
X124440Y791079D01*
X124452Y791116D01*
X124451Y791156D01*
X124459Y791210D01*
X124459Y793750D01*
X124448Y793815D01*
X124446Y793881D01*
X124428Y793924D01*
X124420Y793971D01*
X124386Y794028D01*
X124361Y794088D01*
X124330Y794123D01*
X124305Y794164D01*
X124254Y794206D01*
X124210Y794254D01*
X124168Y794276D01*
X124131Y794305D01*
X124069Y794326D01*
X124010Y794357D01*
X123956Y794365D01*
X123919Y794377D01*
X123879Y794376D01*
X123825Y794384D01*
X120015Y794384D01*
X119950Y794373D01*
X119884Y794371D01*
X119841Y794353D01*
X119794Y794345D01*
X119737Y794311D01*
X119677Y794286D01*
X119642Y794255D01*
X119601Y794230D01*
X119560Y794179D01*
X119511Y794135D01*
X119489Y794093D01*
X119460Y794056D01*
X119439Y793994D01*
X119408Y793935D01*
X119400Y793881D01*
X119388Y793844D01*
X119388Y793841D01*
X119389Y793804D01*
X119381Y793750D01*
X119381Y791210D01*
X119392Y791145D01*
X119394Y791079D01*
X119412Y791036D01*
X119420Y790989D01*
X119454Y790932D01*
X119479Y790872D01*
X119510Y790837D01*
X119535Y790796D01*
X119586Y790755D01*
X119630Y790706D01*
X119672Y790684D01*
X119709Y790655D01*
X119771Y790634D01*
X119830Y790603D01*
X119884Y790595D01*
X119921Y790583D01*
X119961Y790584D01*
X120015Y790576D01*
X123825Y790576D01*
X123890Y790587D01*
G37*
G36*
X134050Y790587D02*
X134050Y790587D01*
X134116Y790589D01*
X134159Y790607D01*
X134206Y790615D01*
X134263Y790649D01*
X134323Y790674D01*
X134358Y790705D01*
X134399Y790730D01*
X134441Y790781D01*
X134489Y790825D01*
X134511Y790867D01*
X134540Y790904D01*
X134561Y790966D01*
X134592Y791025D01*
X134600Y791079D01*
X134612Y791116D01*
X134611Y791156D01*
X134619Y791210D01*
X134619Y793750D01*
X134608Y793815D01*
X134606Y793881D01*
X134588Y793924D01*
X134580Y793971D01*
X134546Y794028D01*
X134521Y794088D01*
X134490Y794123D01*
X134465Y794164D01*
X134414Y794206D01*
X134370Y794254D01*
X134328Y794276D01*
X134291Y794305D01*
X134229Y794326D01*
X134170Y794357D01*
X134116Y794365D01*
X134079Y794377D01*
X134039Y794376D01*
X133985Y794384D01*
X130175Y794384D01*
X130110Y794373D01*
X130044Y794371D01*
X130001Y794353D01*
X129954Y794345D01*
X129897Y794311D01*
X129837Y794286D01*
X129802Y794255D01*
X129761Y794230D01*
X129720Y794179D01*
X129671Y794135D01*
X129649Y794093D01*
X129620Y794056D01*
X129599Y793994D01*
X129568Y793935D01*
X129560Y793881D01*
X129548Y793844D01*
X129548Y793841D01*
X129549Y793804D01*
X129541Y793750D01*
X129541Y791210D01*
X129552Y791145D01*
X129554Y791079D01*
X129572Y791036D01*
X129580Y790989D01*
X129614Y790932D01*
X129639Y790872D01*
X129670Y790837D01*
X129695Y790796D01*
X129746Y790755D01*
X129790Y790706D01*
X129832Y790684D01*
X129869Y790655D01*
X129931Y790634D01*
X129990Y790603D01*
X130044Y790595D01*
X130081Y790583D01*
X130121Y790584D01*
X130175Y790576D01*
X133985Y790576D01*
X134050Y790587D01*
G37*
G36*
X1388800Y137807D02*
X1388800Y137807D01*
X1388866Y137809D01*
X1388909Y137827D01*
X1388956Y137835D01*
X1389013Y137869D01*
X1389073Y137894D01*
X1389108Y137925D01*
X1389149Y137950D01*
X1389191Y138001D01*
X1389239Y138045D01*
X1389261Y138087D01*
X1389290Y138124D01*
X1389311Y138186D01*
X1389342Y138245D01*
X1389350Y138299D01*
X1389362Y138336D01*
X1389361Y138376D01*
X1389369Y138430D01*
X1389369Y140970D01*
X1389358Y141035D01*
X1389356Y141101D01*
X1389338Y141144D01*
X1389330Y141191D01*
X1389296Y141248D01*
X1389271Y141308D01*
X1389240Y141343D01*
X1389215Y141384D01*
X1389164Y141426D01*
X1389120Y141474D01*
X1389078Y141496D01*
X1389041Y141525D01*
X1388979Y141546D01*
X1388920Y141577D01*
X1388866Y141585D01*
X1388829Y141597D01*
X1388789Y141596D01*
X1388735Y141604D01*
X1384925Y141604D01*
X1384860Y141593D01*
X1384794Y141591D01*
X1384751Y141573D01*
X1384704Y141565D01*
X1384647Y141531D01*
X1384587Y141506D01*
X1384552Y141475D01*
X1384511Y141450D01*
X1384470Y141399D01*
X1384421Y141355D01*
X1384399Y141313D01*
X1384370Y141276D01*
X1384349Y141214D01*
X1384318Y141155D01*
X1384310Y141101D01*
X1384298Y141064D01*
X1384298Y141061D01*
X1384299Y141024D01*
X1384291Y140970D01*
X1384291Y138430D01*
X1384302Y138365D01*
X1384304Y138299D01*
X1384322Y138256D01*
X1384330Y138209D01*
X1384364Y138152D01*
X1384389Y138092D01*
X1384420Y138057D01*
X1384445Y138016D01*
X1384496Y137975D01*
X1384540Y137926D01*
X1384582Y137904D01*
X1384619Y137875D01*
X1384681Y137854D01*
X1384740Y137823D01*
X1384794Y137815D01*
X1384831Y137803D01*
X1384871Y137804D01*
X1384925Y137796D01*
X1388735Y137796D01*
X1388800Y137807D01*
G37*
G36*
X482020Y137807D02*
X482020Y137807D01*
X482086Y137809D01*
X482129Y137827D01*
X482176Y137835D01*
X482233Y137869D01*
X482293Y137894D01*
X482328Y137925D01*
X482369Y137950D01*
X482411Y138001D01*
X482459Y138045D01*
X482481Y138087D01*
X482510Y138124D01*
X482531Y138186D01*
X482562Y138245D01*
X482570Y138299D01*
X482582Y138336D01*
X482581Y138376D01*
X482589Y138430D01*
X482589Y140970D01*
X482578Y141035D01*
X482576Y141101D01*
X482558Y141144D01*
X482550Y141191D01*
X482516Y141248D01*
X482491Y141308D01*
X482460Y141343D01*
X482435Y141384D01*
X482384Y141426D01*
X482340Y141474D01*
X482298Y141496D01*
X482261Y141525D01*
X482199Y141546D01*
X482140Y141577D01*
X482086Y141585D01*
X482049Y141597D01*
X482009Y141596D01*
X481955Y141604D01*
X478145Y141604D01*
X478080Y141593D01*
X478014Y141591D01*
X477971Y141573D01*
X477924Y141565D01*
X477867Y141531D01*
X477807Y141506D01*
X477772Y141475D01*
X477731Y141450D01*
X477690Y141399D01*
X477641Y141355D01*
X477619Y141313D01*
X477590Y141276D01*
X477569Y141214D01*
X477538Y141155D01*
X477530Y141101D01*
X477518Y141064D01*
X477518Y141061D01*
X477519Y141024D01*
X477511Y140970D01*
X477511Y138430D01*
X477522Y138365D01*
X477524Y138299D01*
X477542Y138256D01*
X477550Y138209D01*
X477584Y138152D01*
X477609Y138092D01*
X477640Y138057D01*
X477665Y138016D01*
X477716Y137975D01*
X477760Y137926D01*
X477802Y137904D01*
X477839Y137875D01*
X477901Y137854D01*
X477960Y137823D01*
X478014Y137815D01*
X478051Y137803D01*
X478091Y137804D01*
X478145Y137796D01*
X481955Y137796D01*
X482020Y137807D01*
G37*
D10*
X522350Y222250D03*
X539350Y222250D03*
D11*
X232090Y223320D02*
X225110Y223320D01*
X232090Y223320D02*
X232090Y216340D01*
X225110Y216340D01*
X225110Y223320D01*
X225110Y221140D02*
X232090Y221140D01*
X232090Y240860D02*
X225110Y240860D01*
X232090Y240860D02*
X232090Y233880D01*
X225110Y233880D01*
X225110Y240860D01*
X225110Y238680D02*
X232090Y238680D01*
X456130Y16190D02*
X456130Y9210D01*
X456130Y16190D02*
X463110Y16190D01*
X463110Y9210D01*
X456130Y9210D01*
X456130Y14010D02*
X463110Y14010D01*
X438590Y16190D02*
X438590Y9210D01*
X438590Y16190D02*
X445570Y16190D01*
X445570Y9210D01*
X438590Y9210D01*
X438590Y14010D02*
X445570Y14010D01*
X669610Y223320D02*
X676590Y223320D01*
X676590Y216340D01*
X669610Y216340D01*
X669610Y223320D01*
X669610Y221140D02*
X676590Y221140D01*
X676590Y240860D02*
X669610Y240860D01*
X676590Y240860D02*
X676590Y233880D01*
X669610Y233880D01*
X669610Y240860D01*
X669610Y238680D02*
X676590Y238680D01*
D12*
X838200Y241300D03*
X50800Y50800D03*
D13*
X152400Y12700D03*
X127000Y12700D03*
X101600Y12700D03*
X76200Y12700D03*
D14*
X887650Y99000D03*
X887650Y155000D03*
D15*
X850900Y112000D03*
X850900Y122000D03*
X850900Y132000D03*
X850900Y142000D03*
D14*
X14050Y155000D03*
X14050Y99000D03*
D15*
X50800Y142000D03*
X50800Y132000D03*
X50800Y122000D03*
X50800Y112000D03*
D16*
X450850Y68707D03*
X450850Y58293D03*
D17*
X485257Y139700D03*
X474843Y139700D03*
D18*
X876300Y25400D03*
X25400Y228600D03*
X25400Y25400D03*
X876300Y228600D03*
D19*
X231800Y180500D03*
X250800Y180500D03*
X241300Y201500D03*
X676300Y180500D03*
X695300Y180500D03*
X685800Y201500D03*
D20*
X203200Y237100D03*
X203200Y220100D03*
D10*
X459350Y38100D03*
X442350Y38100D03*
X522350Y241300D03*
X539350Y241300D03*
D20*
X254000Y220100D03*
X254000Y237100D03*
X203200Y182000D03*
X203200Y199000D03*
X647700Y237100D03*
X647700Y220100D03*
X698500Y237100D03*
X698500Y220100D03*
X647700Y182000D03*
X647700Y199000D03*
D21*
X502850Y203200D03*
X502850Y190500D03*
X502850Y177800D03*
X502850Y165100D03*
X502850Y152400D03*
X502850Y139700D03*
X502850Y127000D03*
X558850Y127000D03*
X558850Y139700D03*
X558850Y152400D03*
X558850Y165100D03*
X558850Y177800D03*
X558850Y190500D03*
X558850Y203200D03*
D17*
X116586Y114300D03*
X127000Y114300D03*
X137414Y114300D03*
D20*
X95250Y122800D03*
X95250Y105800D03*
X158750Y122800D03*
X158750Y105800D03*
D22*
X368300Y317500D03*
X88900Y317500D03*
X317500Y317500D03*
X190500Y317500D03*
X812800Y317500D03*
X533400Y317500D03*
X762000Y317500D03*
X635000Y317500D03*
D23*
X171450Y590550D03*
X107950Y590550D03*
X615950Y590550D03*
X552450Y590550D03*
D18*
X876300Y647700D03*
X25400Y647700D03*
D13*
X177800Y12700D03*
D10*
X270900Y558800D03*
X287900Y558800D03*
X740800Y558800D03*
X757800Y558800D03*
D13*
X292100Y609600D03*
X266700Y609600D03*
X736600Y609600D03*
X711200Y609600D03*
D18*
X746300Y125400D03*
X406300Y125400D03*
X376300Y25400D03*
D10*
X1429130Y222250D03*
X1446130Y222250D03*
D11*
X1138870Y223320D02*
X1131890Y223320D01*
X1138870Y223320D02*
X1138870Y216340D01*
X1131890Y216340D01*
X1131890Y223320D01*
X1131890Y221140D02*
X1138870Y221140D01*
X1138870Y240860D02*
X1131890Y240860D01*
X1138870Y240860D02*
X1138870Y233880D01*
X1131890Y233880D01*
X1131890Y240860D01*
X1131890Y238680D02*
X1138870Y238680D01*
X1362910Y16190D02*
X1362910Y9210D01*
X1362910Y16190D02*
X1369890Y16190D01*
X1369890Y9210D01*
X1362910Y9210D01*
X1362910Y14010D02*
X1369890Y14010D01*
X1345370Y16190D02*
X1345370Y9210D01*
X1345370Y16190D02*
X1352350Y16190D01*
X1352350Y9210D01*
X1345370Y9210D01*
X1345370Y14010D02*
X1352350Y14010D01*
X1576390Y223320D02*
X1583370Y223320D01*
X1583370Y216340D01*
X1576390Y216340D01*
X1576390Y223320D01*
X1576390Y221140D02*
X1583370Y221140D01*
X1583370Y240860D02*
X1576390Y240860D01*
X1583370Y240860D02*
X1583370Y233880D01*
X1576390Y233880D01*
X1576390Y240860D01*
X1576390Y238680D02*
X1583370Y238680D01*
D12*
X1744980Y241300D03*
X957580Y50800D03*
D13*
X1059180Y12700D03*
X1033780Y12700D03*
X1008380Y12700D03*
X982980Y12700D03*
D14*
X1794430Y99000D03*
X1794430Y155000D03*
D15*
X1757680Y112000D03*
X1757680Y122000D03*
X1757680Y132000D03*
X1757680Y142000D03*
D14*
X920830Y155000D03*
X920830Y99000D03*
D15*
X957580Y142000D03*
X957580Y132000D03*
X957580Y122000D03*
X957580Y112000D03*
D16*
X1357630Y68707D03*
X1357630Y58293D03*
D17*
X1392037Y139700D03*
X1381623Y139700D03*
D18*
X1783080Y25400D03*
X932180Y228600D03*
X932180Y25400D03*
X1783080Y228600D03*
D19*
X1138580Y180500D03*
X1157580Y180500D03*
X1148080Y201500D03*
X1583080Y180500D03*
X1602080Y180500D03*
X1592580Y201500D03*
D20*
X1109980Y237100D03*
X1109980Y220100D03*
D10*
X1366130Y38100D03*
X1349130Y38100D03*
X1429130Y241300D03*
X1446130Y241300D03*
D20*
X1160780Y220100D03*
X1160780Y237100D03*
X1109980Y182000D03*
X1109980Y199000D03*
X1554480Y237100D03*
X1554480Y220100D03*
X1605280Y237100D03*
X1605280Y220100D03*
X1554480Y182000D03*
X1554480Y199000D03*
D21*
X1409630Y203200D03*
X1409630Y190500D03*
X1409630Y177800D03*
X1409630Y165100D03*
X1409630Y152400D03*
X1409630Y139700D03*
X1409630Y127000D03*
X1465630Y127000D03*
X1465630Y139700D03*
X1465630Y152400D03*
X1465630Y165100D03*
X1465630Y177800D03*
X1465630Y190500D03*
X1465630Y203200D03*
D17*
X1023366Y114300D03*
X1033780Y114300D03*
X1044194Y114300D03*
D20*
X1002030Y122800D03*
X1002030Y105800D03*
X1065530Y122800D03*
X1065530Y105800D03*
D22*
X1275080Y317500D03*
X995680Y317500D03*
X1224280Y317500D03*
X1097280Y317500D03*
X1719580Y317500D03*
X1440180Y317500D03*
X1668780Y317500D03*
X1541780Y317500D03*
D23*
X1078230Y590550D03*
X1014730Y590550D03*
X1522730Y590550D03*
X1459230Y590550D03*
D18*
X1783080Y647700D03*
X932180Y647700D03*
D13*
X1084580Y12700D03*
D10*
X1177680Y558800D03*
X1194680Y558800D03*
X1647580Y558800D03*
X1664580Y558800D03*
D13*
X1198880Y609600D03*
X1173480Y609600D03*
X1643380Y609600D03*
X1617980Y609600D03*
D18*
X1653080Y125400D03*
X1313080Y125400D03*
X1283080Y25400D03*
D10*
X522350Y900430D03*
X539350Y900430D03*
D11*
X232090Y901500D02*
X225110Y901500D01*
X232090Y901500D02*
X232090Y894520D01*
X225110Y894520D01*
X225110Y901500D01*
X225110Y899320D02*
X232090Y899320D01*
X232090Y919040D02*
X225110Y919040D01*
X232090Y919040D02*
X232090Y912060D01*
X225110Y912060D01*
X225110Y919040D01*
X225110Y916860D02*
X232090Y916860D01*
X456130Y694370D02*
X456130Y687390D01*
X456130Y694370D02*
X463110Y694370D01*
X463110Y687390D01*
X456130Y687390D01*
X456130Y692190D02*
X463110Y692190D01*
X438590Y694370D02*
X438590Y687390D01*
X438590Y694370D02*
X445570Y694370D01*
X445570Y687390D01*
X438590Y687390D01*
X438590Y692190D02*
X445570Y692190D01*
X669610Y901500D02*
X676590Y901500D01*
X676590Y894520D01*
X669610Y894520D01*
X669610Y901500D01*
X669610Y899320D02*
X676590Y899320D01*
X676590Y919040D02*
X669610Y919040D01*
X676590Y919040D02*
X676590Y912060D01*
X669610Y912060D01*
X669610Y919040D01*
X669610Y916860D02*
X676590Y916860D01*
D12*
X838200Y919480D03*
X50800Y728980D03*
D13*
X152400Y690880D03*
X127000Y690880D03*
X101600Y690880D03*
X76200Y690880D03*
D14*
X887650Y777180D03*
X887650Y833180D03*
D15*
X850900Y790180D03*
X850900Y800180D03*
X850900Y810180D03*
X850900Y820180D03*
D14*
X14050Y833180D03*
X14050Y777180D03*
D15*
X50800Y820180D03*
X50800Y810180D03*
X50800Y800180D03*
X50800Y790180D03*
D16*
X450850Y746887D03*
X450850Y736473D03*
D17*
X485257Y817880D03*
X474843Y817880D03*
D18*
X876300Y703580D03*
X25400Y906780D03*
X25400Y703580D03*
X876300Y906780D03*
D19*
X231800Y858680D03*
X250800Y858680D03*
X241300Y879680D03*
X676300Y858680D03*
X695300Y858680D03*
X685800Y879680D03*
D20*
X203200Y915280D03*
X203200Y898280D03*
D10*
X459350Y716280D03*
X442350Y716280D03*
X522350Y919480D03*
X539350Y919480D03*
D20*
X254000Y898280D03*
X254000Y915280D03*
X203200Y860180D03*
X203200Y877180D03*
X647700Y915280D03*
X647700Y898280D03*
X698500Y915280D03*
X698500Y898280D03*
X647700Y860180D03*
X647700Y877180D03*
D21*
X502850Y881380D03*
X502850Y868680D03*
X502850Y855980D03*
X502850Y843280D03*
X502850Y830580D03*
X502850Y817880D03*
X502850Y805180D03*
X558850Y805180D03*
X558850Y817880D03*
X558850Y830580D03*
X558850Y843280D03*
X558850Y855980D03*
X558850Y868680D03*
X558850Y881380D03*
D17*
X116586Y792480D03*
X127000Y792480D03*
X137414Y792480D03*
D20*
X95250Y800980D03*
X95250Y783980D03*
X158750Y800980D03*
X158750Y783980D03*
D22*
X368300Y995680D03*
X88900Y995680D03*
X317500Y995680D03*
X190500Y995680D03*
X812800Y995680D03*
X533400Y995680D03*
X762000Y995680D03*
X635000Y995680D03*
D23*
X171450Y1268730D03*
X107950Y1268730D03*
X615950Y1268730D03*
X552450Y1268730D03*
D18*
X876300Y1325880D03*
X25400Y1325880D03*
D13*
X177800Y690880D03*
D10*
X270900Y1236980D03*
X287900Y1236980D03*
X740800Y1236980D03*
X757800Y1236980D03*
D13*
X292100Y1287780D03*
X266700Y1287780D03*
X736600Y1287780D03*
X711200Y1287780D03*
D18*
X746300Y803580D03*
X406300Y803580D03*
X376300Y703580D03*
D10*
X1429130Y900430D03*
X1446130Y900430D03*
D11*
X1138870Y901500D02*
X1131890Y901500D01*
X1138870Y901500D02*
X1138870Y894520D01*
X1131890Y894520D01*
X1131890Y901500D01*
X1131890Y899320D02*
X1138870Y899320D01*
X1138870Y919040D02*
X1131890Y919040D01*
X1138870Y919040D02*
X1138870Y912060D01*
X1131890Y912060D01*
X1131890Y919040D01*
X1131890Y916860D02*
X1138870Y916860D01*
X1362910Y694370D02*
X1362910Y687390D01*
X1362910Y694370D02*
X1369890Y694370D01*
X1369890Y687390D01*
X1362910Y687390D01*
X1362910Y692190D02*
X1369890Y692190D01*
X1345370Y694370D02*
X1345370Y687390D01*
X1345370Y694370D02*
X1352350Y694370D01*
X1352350Y687390D01*
X1345370Y687390D01*
X1345370Y692190D02*
X1352350Y692190D01*
X1576390Y901500D02*
X1583370Y901500D01*
X1583370Y894520D01*
X1576390Y894520D01*
X1576390Y901500D01*
X1576390Y899320D02*
X1583370Y899320D01*
X1583370Y919040D02*
X1576390Y919040D01*
X1583370Y919040D02*
X1583370Y912060D01*
X1576390Y912060D01*
X1576390Y919040D01*
X1576390Y916860D02*
X1583370Y916860D01*
D12*
X1744980Y919480D03*
X957580Y728980D03*
D13*
X1059180Y690880D03*
X1033780Y690880D03*
X1008380Y690880D03*
X982980Y690880D03*
D14*
X1794430Y777180D03*
X1794430Y833180D03*
D15*
X1757680Y790180D03*
X1757680Y800180D03*
X1757680Y810180D03*
X1757680Y820180D03*
D14*
X920830Y833180D03*
X920830Y777180D03*
D15*
X957580Y820180D03*
X957580Y810180D03*
X957580Y800180D03*
X957580Y790180D03*
D16*
X1357630Y746887D03*
X1357630Y736473D03*
D17*
X1392037Y817880D03*
X1381623Y817880D03*
D18*
X1783080Y703580D03*
X932180Y906780D03*
X932180Y703580D03*
X1783080Y906780D03*
D19*
X1138580Y858680D03*
X1157580Y858680D03*
X1148080Y879680D03*
X1583080Y858680D03*
X1602080Y858680D03*
X1592580Y879680D03*
D20*
X1109980Y915280D03*
X1109980Y898280D03*
D10*
X1366130Y716280D03*
X1349130Y716280D03*
X1429130Y919480D03*
X1446130Y919480D03*
D20*
X1160780Y898280D03*
X1160780Y915280D03*
X1109980Y860180D03*
X1109980Y877180D03*
X1554480Y915280D03*
X1554480Y898280D03*
X1605280Y915280D03*
X1605280Y898280D03*
X1554480Y860180D03*
X1554480Y877180D03*
D21*
X1409630Y881380D03*
X1409630Y868680D03*
X1409630Y855980D03*
X1409630Y843280D03*
X1409630Y830580D03*
X1409630Y817880D03*
X1409630Y805180D03*
X1465630Y805180D03*
X1465630Y817880D03*
X1465630Y830580D03*
X1465630Y843280D03*
X1465630Y855980D03*
X1465630Y868680D03*
X1465630Y881380D03*
D17*
X1023366Y792480D03*
X1033780Y792480D03*
X1044194Y792480D03*
D20*
X1002030Y800980D03*
X1002030Y783980D03*
X1065530Y800980D03*
X1065530Y783980D03*
D22*
X1275080Y995680D03*
X995680Y995680D03*
X1224280Y995680D03*
X1097280Y995680D03*
X1719580Y995680D03*
X1440180Y995680D03*
X1668780Y995680D03*
X1541780Y995680D03*
D23*
X1078230Y1268730D03*
X1014730Y1268730D03*
X1522730Y1268730D03*
X1459230Y1268730D03*
D18*
X1783080Y1325880D03*
X932180Y1325880D03*
D13*
X1084580Y690880D03*
D10*
X1177680Y1236980D03*
X1194680Y1236980D03*
X1647580Y1236980D03*
X1664580Y1236980D03*
D13*
X1198880Y1287780D03*
X1173480Y1287780D03*
X1643380Y1287780D03*
X1617980Y1287780D03*
D18*
X1653080Y803580D03*
X1313080Y803580D03*
X1283080Y703580D03*
D12*
X68580Y1372235D03*
X1739265Y1372235D03*
D24*
X59525Y-20955D02*
X59528Y-20733D01*
X59536Y-20511D01*
X59550Y-20289D01*
X59569Y-20067D01*
X59593Y-19847D01*
X59623Y-19626D01*
X59658Y-19407D01*
X59699Y-19188D01*
X59745Y-18971D01*
X59796Y-18755D01*
X59853Y-18540D01*
X59915Y-18326D01*
X59982Y-18115D01*
X60054Y-17904D01*
X60132Y-17696D01*
X60214Y-17490D01*
X60302Y-17286D01*
X60394Y-17083D01*
X60492Y-16884D01*
X60594Y-16687D01*
X60701Y-16492D01*
X60813Y-16300D01*
X60930Y-16111D01*
X61051Y-15924D01*
X61177Y-15741D01*
X61307Y-15561D01*
X61442Y-15384D01*
X61580Y-15211D01*
X61723Y-15041D01*
X61871Y-14874D01*
X62022Y-14711D01*
X62177Y-14552D01*
X62336Y-14397D01*
X62499Y-14246D01*
X62666Y-14098D01*
X62836Y-13955D01*
X63009Y-13817D01*
X63186Y-13682D01*
X63366Y-13552D01*
X63549Y-13426D01*
X63736Y-13305D01*
X63925Y-13188D01*
X64117Y-13076D01*
X64312Y-12969D01*
X64509Y-12867D01*
X64708Y-12769D01*
X64911Y-12677D01*
X65115Y-12589D01*
X65321Y-12507D01*
X65529Y-12429D01*
X65740Y-12357D01*
X65951Y-12290D01*
X66165Y-12228D01*
X66380Y-12171D01*
X66596Y-12120D01*
X66813Y-12074D01*
X67032Y-12033D01*
X67251Y-11998D01*
X67472Y-11968D01*
X67692Y-11944D01*
X67914Y-11925D01*
X68136Y-11911D01*
X68358Y-11903D01*
X68580Y-11900D01*
X68802Y-11903D01*
X69024Y-11911D01*
X69246Y-11925D01*
X69468Y-11944D01*
X69688Y-11968D01*
X69909Y-11998D01*
X70128Y-12033D01*
X70347Y-12074D01*
X70564Y-12120D01*
X70780Y-12171D01*
X70995Y-12228D01*
X71209Y-12290D01*
X71420Y-12357D01*
X71631Y-12429D01*
X71839Y-12507D01*
X72045Y-12589D01*
X72249Y-12677D01*
X72452Y-12769D01*
X72651Y-12867D01*
X72848Y-12969D01*
X73043Y-13076D01*
X73235Y-13188D01*
X73424Y-13305D01*
X73611Y-13426D01*
X73794Y-13552D01*
X73974Y-13682D01*
X74151Y-13817D01*
X74324Y-13955D01*
X74494Y-14098D01*
X74661Y-14246D01*
X74824Y-14397D01*
X74983Y-14552D01*
X75138Y-14711D01*
X75289Y-14874D01*
X75437Y-15041D01*
X75580Y-15211D01*
X75718Y-15384D01*
X75853Y-15561D01*
X75983Y-15741D01*
X76109Y-15924D01*
X76230Y-16111D01*
X76347Y-16300D01*
X76459Y-16492D01*
X76566Y-16687D01*
X76668Y-16884D01*
X76766Y-17083D01*
X76858Y-17286D01*
X76946Y-17490D01*
X77028Y-17696D01*
X77106Y-17904D01*
X77178Y-18115D01*
X77245Y-18326D01*
X77307Y-18540D01*
X77364Y-18755D01*
X77415Y-18971D01*
X77461Y-19188D01*
X77502Y-19407D01*
X77537Y-19626D01*
X77567Y-19847D01*
X77591Y-20067D01*
X77610Y-20289D01*
X77624Y-20511D01*
X77632Y-20733D01*
X77635Y-20955D01*
X77632Y-21177D01*
X77624Y-21399D01*
X77610Y-21621D01*
X77591Y-21843D01*
X77567Y-22063D01*
X77537Y-22284D01*
X77502Y-22503D01*
X77461Y-22722D01*
X77415Y-22939D01*
X77364Y-23155D01*
X77307Y-23370D01*
X77245Y-23584D01*
X77178Y-23795D01*
X77106Y-24006D01*
X77028Y-24214D01*
X76946Y-24420D01*
X76858Y-24624D01*
X76766Y-24827D01*
X76668Y-25026D01*
X76566Y-25223D01*
X76459Y-25418D01*
X76347Y-25610D01*
X76230Y-25799D01*
X76109Y-25986D01*
X75983Y-26169D01*
X75853Y-26349D01*
X75718Y-26526D01*
X75580Y-26699D01*
X75437Y-26869D01*
X75289Y-27036D01*
X75138Y-27199D01*
X74983Y-27358D01*
X74824Y-27513D01*
X74661Y-27664D01*
X74494Y-27812D01*
X74324Y-27955D01*
X74151Y-28093D01*
X73974Y-28228D01*
X73794Y-28358D01*
X73611Y-28484D01*
X73424Y-28605D01*
X73235Y-28722D01*
X73043Y-28834D01*
X72848Y-28941D01*
X72651Y-29043D01*
X72452Y-29141D01*
X72249Y-29233D01*
X72045Y-29321D01*
X71839Y-29403D01*
X71631Y-29481D01*
X71420Y-29553D01*
X71209Y-29620D01*
X70995Y-29682D01*
X70780Y-29739D01*
X70564Y-29790D01*
X70347Y-29836D01*
X70128Y-29877D01*
X69909Y-29912D01*
X69688Y-29942D01*
X69468Y-29966D01*
X69246Y-29985D01*
X69024Y-29999D01*
X68802Y-30007D01*
X68580Y-30010D01*
X68358Y-30007D01*
X68136Y-29999D01*
X67914Y-29985D01*
X67692Y-29966D01*
X67472Y-29942D01*
X67251Y-29912D01*
X67032Y-29877D01*
X66813Y-29836D01*
X66596Y-29790D01*
X66380Y-29739D01*
X66165Y-29682D01*
X65951Y-29620D01*
X65740Y-29553D01*
X65529Y-29481D01*
X65321Y-29403D01*
X65115Y-29321D01*
X64911Y-29233D01*
X64708Y-29141D01*
X64509Y-29043D01*
X64312Y-28941D01*
X64117Y-28834D01*
X63925Y-28722D01*
X63736Y-28605D01*
X63549Y-28484D01*
X63366Y-28358D01*
X63186Y-28228D01*
X63009Y-28093D01*
X62836Y-27955D01*
X62666Y-27812D01*
X62499Y-27664D01*
X62336Y-27513D01*
X62177Y-27358D01*
X62022Y-27199D01*
X61871Y-27036D01*
X61723Y-26869D01*
X61580Y-26699D01*
X61442Y-26526D01*
X61307Y-26349D01*
X61177Y-26169D01*
X61051Y-25986D01*
X60930Y-25799D01*
X60813Y-25610D01*
X60701Y-25418D01*
X60594Y-25223D01*
X60492Y-25026D01*
X60394Y-24827D01*
X60302Y-24624D01*
X60214Y-24420D01*
X60132Y-24214D01*
X60054Y-24006D01*
X59982Y-23795D01*
X59915Y-23584D01*
X59853Y-23370D01*
X59796Y-23155D01*
X59745Y-22939D01*
X59699Y-22722D01*
X59658Y-22503D01*
X59623Y-22284D01*
X59593Y-22063D01*
X59569Y-21843D01*
X59550Y-21621D01*
X59536Y-21399D01*
X59528Y-21177D01*
X59525Y-20955D01*
D25*
X68580Y-20955D03*
M02*
