M48
;GenerationSoftware,Autodesk,EAGLE,9.6.0*%
;CreationDate,2020-08-24T15:12:21Z*%
FMAT,2
ICI,OFF
METRIC,TZ,000.000
T7C0.381
T6C0.508
T5C0.813
T4C1.016
T3C1.600
T2C1.651
T1C3.302
%
G90
M71
T1
X87630Y64770
X2540Y64770
X74630Y12540
X40630Y12540
X37630Y2540
X178308Y2540
X93218Y22860
X93218Y2540
X178308Y22860
X178308Y64770
X93218Y64770
X165308Y12540
X131308Y12540
X128308Y2540
X87630Y70358
X2540Y90678
X2540Y70358
X87630Y90678
X128308Y70358
X131308Y80358
X165308Y80358
X93218Y132588
X178308Y90678
X87630Y132588
X93218Y70358
X93218Y90678
X178308Y70358
X37630Y70358
X40630Y80358
X74630Y80358
X2540Y132588
X87630Y2540
X2540Y22860
X2540Y2540
X87630Y22860
X178308Y132588
T2
X171958Y99568
X122428Y31750
X99568Y31750
X81280Y31750
X63500Y31750
X154178Y99568
X166878Y99568
X144018Y99568
X19050Y31750
X109728Y99568
X122428Y99568
X99568Y99568
X76200Y31750
X127508Y99568
X53340Y31750
X31750Y31750
X8890Y31750
X36830Y31750
X109728Y31750
X154178Y31750
X166878Y31750
X127508Y31750
X144018Y31750
X63500Y99568
X76200Y99568
X53340Y99568
X81280Y99568
X19050Y99568
X31750Y99568
X8890Y99568
X36830Y99568
X171958Y31750
T3
X145923Y126873
X152273Y126873
X101473Y126873
X107823Y126873
X55245Y59055
X152273Y59055
X145923Y59055
X61595Y59055
X101473Y59055
X55245Y126873
X61595Y126873
X17145Y126873
X107823Y59055
X10795Y126873
X10795Y59055
X17145Y59055
T4
X98298Y69088
X100838Y69088
X103378Y69088
X105918Y69088
X17780Y69088
X7620Y69088
X10160Y69088
X12700Y69088
X10160Y1270
X12700Y1270
X15240Y1270
X108458Y69088
X108458Y1270
X7620Y1270
X15240Y69088
X98298Y1270
X100838Y1270
X103378Y1270
X105918Y1270
X17780Y1270
T5
X164338Y128778
X161798Y128778
X29210Y128778
X29210Y60960
X26670Y60960
X73660Y60960
X71120Y60960
X119888Y60960
X117348Y60960
X164338Y60960
X161798Y60960
X26670Y128778
X73660Y128778
X71120Y128778
X119888Y128778
X117348Y128778
T6
X145033Y16510
X142493Y19050
X54355Y84328
X145033Y19050
X142493Y13970
X145033Y13970
X142493Y16510
X51815Y13970
X54355Y13970
X51815Y16510
X54355Y16510
X51815Y19050
X54355Y19050
X51815Y81788
X54355Y81788
X51815Y84328
X51815Y86868
X54355Y86868
X142493Y81788
X145033Y81788
X142493Y84328
X145033Y84328
X142493Y86868
X145033Y86868
T7
X48894Y12446
X12700Y3175
X15621Y7620
X11700Y7620
X80010Y11430
X50285Y21590
X173228Y76708
X163068Y86868
X164338Y75438
X142208Y73628
X161798Y85598
X165608Y86360
X143763Y85598
X147573Y90678
X140963Y89408
X137413Y91948
X57530Y83058
X47370Y88011
X47370Y86868
X58420Y89408
X21590Y89408
X148208Y83058
X138048Y88011
X138048Y86868
X149098Y89408
X12700Y80518
X67310Y80518
X50285Y89408
X80010Y79248
X7620Y80518
X11700Y75438
X15621Y75438
X12700Y70993
X48894Y80264
X39115Y85598
X26415Y85598
X82550Y76708
X72390Y86868
X7620Y12700
X51530Y73628
X71120Y85598
X74930Y86360
X112268Y89408
X103378Y80518
X157988Y80518
X170688Y79248
X53085Y85598
X56895Y90678
X46735Y91948
X148208Y15240
X46735Y24130
X56895Y22860
X53085Y17780
X73660Y75438
X74930Y18542
X71120Y17780
X138048Y20193
X138048Y19050
X149098Y21590
X112268Y21590
X103378Y12700
X157988Y12700
X140963Y21590
X170688Y11430
X98298Y12700
X102378Y7620
X106299Y7620
X103378Y3175
X139572Y12446
X142208Y5810
X98298Y80518
X102378Y75438
X106299Y75438
X129793Y17780
X117093Y17780
X173228Y8890
X163068Y19050
X51530Y5810
X73660Y7620
X72390Y19050
X82550Y8890
X26415Y17780
X39115Y17780
X164338Y7620
X161798Y17780
X165608Y18542
X143763Y17780
X147573Y22860
X137413Y24130
X57530Y15240
X47370Y20193
X47370Y19050
X58420Y21590
X21590Y21590
X12700Y12700
X67310Y12700
X103378Y70993
X139572Y80264
X129793Y85598
X117093Y85598
M30