M48
;GenerationSoftware,Autodesk,EAGLE,9.6.0*%
;CreationDate,2020-05-29T21:41:41Z*%
FMAT,2
ICI,OFF
METRIC,TZ,000.000
T6C0.381
T5C0.508
T4C0.813
T3C1.016
T2C1.600
T1C3.302
%
G90
M71
T1
X87630Y64770
X2540Y64770
X74630Y12540
X40630Y12540
X37630Y2540
X178308Y2540
X93218Y22860
X93218Y2540
X178308Y22860
X178308Y64770
X93218Y64770
X165308Y12540
X131308Y12540
X128308Y2540
X87630Y70358
X2540Y90678
X2540Y70358
X87630Y90678
X128308Y70358
X131308Y80358
X165308Y80358
X93218Y132588
X178308Y90678
X87630Y132588
X93218Y70358
X93218Y90678
X178308Y70358
X37630Y70358
X40630Y80358
X74630Y80358
X2540Y132588
X87630Y2540
X2540Y22860
X2540Y2540
X87630Y22860
X178308Y132588
T2
X73025Y127508
X170053Y127508
X163703Y127508
X125603Y127508
X119253Y127508
X34925Y127508
X28575Y127508
X79375Y127508
X79375Y59690
X73025Y59690
X34925Y59690
X28575Y59690
X170053Y59690
X163703Y59690
X125603Y59690
X119253Y59690
T3
X58420Y31750
X99568Y99568
X98298Y69088
X100838Y69088
X103378Y69088
X105918Y69088
X17780Y69088
X71120Y99568
X58420Y99568
X81280Y99568
X53340Y99568
X26670Y99568
X13970Y99568
X36830Y99568
X8890Y99568
X7620Y69088
X10160Y69088
X12700Y69088
X17780Y1270
X108458Y69088
X161798Y99568
X149098Y99568
X171958Y99568
X71120Y31750
X81280Y31750
X108458Y1270
X26670Y31750
X13970Y31750
X36830Y31750
X8890Y31750
X7620Y1270
X10160Y1270
X12700Y1270
X15240Y1270
X144018Y99568
X117348Y99568
X104648Y99568
X127508Y99568
X15240Y69088
X161798Y31750
X149098Y31750
X171958Y31750
X144018Y31750
X117348Y31750
X104648Y31750
X127508Y31750
X99568Y31750
X98298Y1270
X100838Y1270
X103378Y1270
X105918Y1270
X53340Y31750
T4
X150368Y128778
X152908Y128778
X15240Y128778
X15240Y60960
X17780Y60960
X59690Y60960
X62230Y60960
X105918Y60960
X108458Y60960
X150368Y60960
X152908Y60960
X17780Y128778
X59690Y128778
X62230Y128778
X105918Y128778
X108458Y128778
T5
X145033Y16510
X142493Y19050
X54355Y84328
X145033Y19050
X142493Y13970
X145033Y13970
X142493Y16510
X51815Y13970
X54355Y13970
X51815Y16510
X54355Y16510
X51815Y19050
X54355Y19050
X51815Y81788
X54355Y81788
X51815Y84328
X51815Y86868
X54355Y86868
X142493Y81788
X145033Y81788
X142493Y84328
X145033Y84328
X142493Y86868
X145033Y86868
T6
X15621Y7620
X11700Y7620
X7620Y12700
X80010Y11430
X67310Y12700
X12700Y12700
X173228Y76708
X163068Y86868
X164338Y75438
X142208Y73628
X161798Y85598
X165608Y86360
X143763Y85598
X147573Y90678
X103378Y80518
X137413Y91948
X57530Y83058
X47370Y88011
X47370Y86868
X58420Y103378
X13970Y103378
X148208Y83058
X138048Y88011
X138048Y86868
X149098Y103378
X58420Y89408
X21590Y89408
X12700Y80518
X67310Y80518
X50285Y89408
X80010Y79248
X7620Y80518
X11700Y75438
X15621Y75438
X12700Y70993
X48894Y80264
X82550Y76708
X72390Y86868
X50285Y21590
X51530Y73628
X71120Y85598
X74930Y86360
X104648Y103378
X149098Y89408
X112268Y89408
X157988Y80518
X53085Y85598
X56895Y90678
X46735Y91948
X148208Y15240
X46735Y24130
X56895Y22860
X53085Y17780
X73660Y75438
X74930Y18542
X71120Y17780
X138048Y20193
X138048Y19050
X149098Y35560
X104648Y35560
X149098Y21590
X112268Y21590
X103378Y12700
X157988Y12700
X140963Y21590
X170688Y11430
X98298Y12700
X102378Y7620
X106299Y7620
X142208Y5810
X140963Y89408
X170688Y79248
X98298Y80518
X103378Y3175
X139572Y12446
X173228Y8890
X163068Y19050
X51530Y5810
X73660Y7620
X72390Y19050
X82550Y8890
X48894Y12446
X12700Y3175
X164338Y7620
X161798Y17780
X165608Y18542
X143763Y17780
X147573Y22860
X137413Y24130
X57530Y15240
X47370Y20193
X47370Y19050
X58420Y35560
X13970Y35560
X58420Y21590
X21590Y21590
X102378Y75438
X106299Y75438
X103378Y70993
X139572Y80264
M30