G04 EAGLE Gerber RS-274X export*
G75*
%MOMM*%
%FSLAX34Y34*%
%LPD*%
%INSoldermask Bottom*%
%IPPOS*%
%AMOC8*
5,1,8,0,0,1.08239X$1,22.5*%
G01*
%ADD10C,1.203200*%
%ADD11C,2.082800*%
%ADD12C,1.221313*%
%ADD13C,3.505200*%
%ADD14C,3.022600*%
%ADD15C,3.003200*%


D10*
X838200Y241300D03*
X50800Y50800D03*
D11*
X152400Y12700D03*
X127000Y12700D03*
X101600Y12700D03*
X76200Y12700D03*
D12*
X543550Y139700D03*
X543550Y165100D03*
X543550Y190500D03*
X518150Y139700D03*
X518150Y165100D03*
X518150Y190500D03*
D13*
X876300Y25400D03*
X25400Y228600D03*
X25400Y25400D03*
X876300Y228600D03*
D14*
X368300Y317500D03*
X88900Y317500D03*
X317500Y317500D03*
X190500Y317500D03*
X812800Y317500D03*
X533400Y317500D03*
X762000Y317500D03*
X635000Y317500D03*
D15*
X171450Y590550D03*
X107950Y590550D03*
X615950Y590550D03*
X552450Y590550D03*
D13*
X876300Y647700D03*
X25400Y647700D03*
D11*
X177800Y12700D03*
X292100Y609600D03*
X266700Y609600D03*
X736600Y609600D03*
X711200Y609600D03*
D13*
X746300Y125400D03*
X406300Y125400D03*
X376300Y25400D03*
D10*
X1744980Y241300D03*
X957580Y50800D03*
D11*
X1059180Y12700D03*
X1033780Y12700D03*
X1008380Y12700D03*
X982980Y12700D03*
D12*
X1450330Y139700D03*
X1450330Y165100D03*
X1450330Y190500D03*
X1424930Y139700D03*
X1424930Y165100D03*
X1424930Y190500D03*
D13*
X1783080Y25400D03*
X932180Y228600D03*
X932180Y25400D03*
X1783080Y228600D03*
D14*
X1275080Y317500D03*
X995680Y317500D03*
X1224280Y317500D03*
X1097280Y317500D03*
X1719580Y317500D03*
X1440180Y317500D03*
X1668780Y317500D03*
X1541780Y317500D03*
D15*
X1078230Y590550D03*
X1014730Y590550D03*
X1522730Y590550D03*
X1459230Y590550D03*
D13*
X1783080Y647700D03*
X932180Y647700D03*
D11*
X1084580Y12700D03*
X1198880Y609600D03*
X1173480Y609600D03*
X1643380Y609600D03*
X1617980Y609600D03*
D13*
X1653080Y125400D03*
X1313080Y125400D03*
X1283080Y25400D03*
D10*
X838200Y919480D03*
X50800Y728980D03*
D11*
X152400Y690880D03*
X127000Y690880D03*
X101600Y690880D03*
X76200Y690880D03*
D12*
X543550Y817880D03*
X543550Y843280D03*
X543550Y868680D03*
X518150Y817880D03*
X518150Y843280D03*
X518150Y868680D03*
D13*
X876300Y703580D03*
X25400Y906780D03*
X25400Y703580D03*
X876300Y906780D03*
D14*
X368300Y995680D03*
X88900Y995680D03*
X317500Y995680D03*
X190500Y995680D03*
X812800Y995680D03*
X533400Y995680D03*
X762000Y995680D03*
X635000Y995680D03*
D15*
X171450Y1268730D03*
X107950Y1268730D03*
X615950Y1268730D03*
X552450Y1268730D03*
D13*
X876300Y1325880D03*
X25400Y1325880D03*
D11*
X177800Y690880D03*
X292100Y1287780D03*
X266700Y1287780D03*
X736600Y1287780D03*
X711200Y1287780D03*
D13*
X746300Y803580D03*
X406300Y803580D03*
X376300Y703580D03*
D10*
X1744980Y919480D03*
X957580Y728980D03*
D11*
X1059180Y690880D03*
X1033780Y690880D03*
X1008380Y690880D03*
X982980Y690880D03*
D12*
X1450330Y817880D03*
X1450330Y843280D03*
X1450330Y868680D03*
X1424930Y817880D03*
X1424930Y843280D03*
X1424930Y868680D03*
D13*
X1783080Y703580D03*
X932180Y906780D03*
X932180Y703580D03*
X1783080Y906780D03*
D14*
X1275080Y995680D03*
X995680Y995680D03*
X1224280Y995680D03*
X1097280Y995680D03*
X1719580Y995680D03*
X1440180Y995680D03*
X1668780Y995680D03*
X1541780Y995680D03*
D15*
X1078230Y1268730D03*
X1014730Y1268730D03*
X1522730Y1268730D03*
X1459230Y1268730D03*
D13*
X1783080Y1325880D03*
X932180Y1325880D03*
D11*
X1084580Y690880D03*
X1198880Y1287780D03*
X1173480Y1287780D03*
X1643380Y1287780D03*
X1617980Y1287780D03*
D13*
X1653080Y803580D03*
X1313080Y803580D03*
X1283080Y703580D03*
D10*
X68580Y1372235D03*
X1739265Y1372235D03*
M02*
